<svg xmlns="http://www.w3.org/2000/svg" viewBox="0 0 186.5 133" width="373" height="266">
  <rect x="0" y="0" width="6" height="6" fill="#FF2E63"/>
  <rect x="7" y="0" width="6" height="6" fill="#FF2E63"/>
  <rect x="14" y="0" width="6" height="6" fill="#FF2E63"/>
  <rect x="21" y="0" width="6" height="6" fill="#FF2E63"/>
  <rect x="28" y="0" width="6" height="6" fill="#FF2E63"/>
  <rect x="35" y="0" width="6" height="6" fill="#FF2E63"/>
  <rect x="42" y="0" width="6" height="6" fill="#FF2E63"/>
  <rect x="49" y="0" width="6" height="6" fill="#FF2E63"/>
  <rect x="0" y="7" width="6" height="6" fill="#FF2E63"/>
  <rect x="7" y="7" width="6" height="6" fill="#FF2E63"/>
  <rect x="14" y="7" width="6" height="6" fill="#FF2E63"/>
  <rect x="21" y="7" width="6" height="6" fill="#FF2E63"/>
  <rect x="28" y="7" width="6" height="6" fill="#FF2E63"/>
  <rect x="35" y="7" width="6" height="6" fill="#FF2E63"/>
  <rect x="42" y="7" width="6" height="6" fill="#FF2E63"/>
  <rect x="49" y="7" width="6" height="6" fill="#FF2E63"/>
  <rect x="0" y="14" width="6" height="6" fill="#FF2E63"/>
  <rect x="7" y="14" width="6" height="6" fill="#FF2E63"/>
  <rect x="42" y="14" width="6" height="6" fill="#FF2E63"/>
  <rect x="49" y="14" width="6" height="6" fill="#FF2E63"/>
  <rect x="0" y="21" width="6" height="6" fill="#FF2E63"/>
  <rect x="7" y="21" width="6" height="6" fill="#FF2E63"/>
  <rect x="42" y="21" width="6" height="6" fill="#FF2E63"/>
  <rect x="49" y="21" width="6" height="6" fill="#FF2E63"/>
  <rect x="0" y="28" width="6" height="6" fill="#FF2E63"/>
  <rect x="7" y="28" width="6" height="6" fill="#FF2E63"/>
  <rect x="28" y="28" width="6" height="6" fill="#FF2E63"/>
  <rect x="35" y="28" width="6" height="6" fill="#FF2E63"/>
  <rect x="42" y="28" width="6" height="6" fill="#FF2E63"/>
  <rect x="49" y="28" width="6" height="6" fill="#FF2E63"/>
  <rect x="0" y="35" width="6" height="6" fill="#FF2E63"/>
  <rect x="7" y="35" width="6" height="6" fill="#FF2E63"/>
  <rect x="35" y="35" width="6" height="6" fill="#FF2E63"/>
  <rect x="42" y="35" width="6" height="6" fill="#FF2E63"/>
  <rect x="49" y="35" width="6" height="6" fill="#FF2E63"/>
  <rect x="0" y="42" width="6" height="6" fill="#FF2E63"/>
  <rect x="7" y="42" width="6" height="6" fill="#FF2E63"/>
  <rect x="14" y="42" width="6" height="6" fill="#FF2E63"/>
  <rect x="21" y="42" width="6" height="6" fill="#FF2E63"/>
  <rect x="28" y="42" width="6" height="6" fill="#FF2E63"/>
  <rect x="35" y="42" width="6" height="6" fill="#FF2E63"/>
  <rect x="42" y="42" width="6" height="6" fill="#FF2E63"/>
  <rect x="49" y="42" width="6" height="6" fill="#FF2E63"/>
  <rect x="7" y="49" width="6" height="6" fill="#FF2E63"/>
  <rect x="14" y="49" width="6" height="6" fill="#FF2E63"/>
  <rect x="21" y="49" width="6" height="6" fill="#FF2E63"/>
  <rect x="28" y="49" width="6" height="6" fill="#FF2E63"/>
  <rect x="35" y="49" width="6" height="6" fill="#FF2E63"/>
  <rect x="42" y="49" width="6" height="6" fill="#FF2E63"/>
  <rect x="49" y="49" width="6" height="6" fill="#FF2E63"/>
  <rect x="28" y="56" width="6" height="6" fill="#FF2E63"/>
  <rect x="35" y="56" width="6" height="6" fill="#FF2E63"/>
  <rect x="42" y="56" width="6" height="6" fill="#FF2E63"/>
  <rect x="49" y="56" width="6" height="6" fill="#FF2E63"/>
  <rect x="35" y="63" width="6" height="6" fill="#FF2E63"/>
  <rect x="42" y="63" width="6" height="6" fill="#FF2E63"/>
  <rect x="49" y="63" width="6" height="6" fill="#FF2E63"/>
  <rect x="63" y="0" width="6" height="6" fill="#FF2E63"/>
  <rect x="70" y="0" width="6" height="6" fill="#FF2E63"/>
  <rect x="105" y="0" width="6" height="6" fill="#FF2E63"/>
  <rect x="112" y="0" width="6" height="6" fill="#FF2E63"/>
  <rect x="63" y="7" width="6" height="6" fill="#FF2E63"/>
  <rect x="70" y="7" width="6" height="6" fill="#FF2E63"/>
  <rect x="105" y="7" width="6" height="6" fill="#FF2E63"/>
  <rect x="112" y="7" width="6" height="6" fill="#FF2E63"/>
  <rect x="63" y="14" width="6" height="6" fill="#FF2E63"/>
  <rect x="70" y="14" width="6" height="6" fill="#FF2E63"/>
  <rect x="105" y="14" width="6" height="6" fill="#FF2E63"/>
  <rect x="112" y="14" width="6" height="6" fill="#FF2E63"/>
  <rect x="63" y="21" width="6" height="6" fill="#FF2E63"/>
  <rect x="70" y="21" width="6" height="6" fill="#FF2E63"/>
  <rect x="105" y="21" width="6" height="6" fill="#FF2E63"/>
  <rect x="112" y="21" width="6" height="6" fill="#FF2E63"/>
  <rect x="63" y="28" width="6" height="6" fill="#FF2E63"/>
  <rect x="70" y="28" width="6" height="6" fill="#FF2E63"/>
  <rect x="105" y="28" width="6" height="6" fill="#FF2E63"/>
  <rect x="112" y="28" width="6" height="6" fill="#FF2E63"/>
  <rect x="63" y="35" width="6" height="6" fill="#FF2E63"/>
  <rect x="70" y="35" width="6" height="6" fill="#FF2E63"/>
  <rect x="105" y="35" width="6" height="6" fill="#FF2E63"/>
  <rect x="112" y="35" width="6" height="6" fill="#FF2E63"/>
  <rect x="63" y="42" width="6" height="6" fill="#FF2E63"/>
  <rect x="70" y="42" width="6" height="6" fill="#FF2E63"/>
  <rect x="77" y="42" width="6" height="6" fill="#FF2E63"/>
  <rect x="84" y="42" width="6" height="6" fill="#FF2E63"/>
  <rect x="91" y="42" width="6" height="6" fill="#FF2E63"/>
  <rect x="98" y="42" width="6" height="6" fill="#FF2E63"/>
  <rect x="105" y="42" width="6" height="6" fill="#FF2E63"/>
  <rect x="112" y="42" width="6" height="6" fill="#FF2E63"/>
  <rect x="63" y="49" width="6" height="6" fill="#FF2E63"/>
  <rect x="70" y="49" width="6" height="6" fill="#FF2E63"/>
  <rect x="77" y="49" width="6" height="6" fill="#FF2E63"/>
  <rect x="84" y="49" width="6" height="6" fill="#FF2E63"/>
  <rect x="91" y="49" width="6" height="6" fill="#FF2E63"/>
  <rect x="98" y="49" width="6" height="6" fill="#FF2E63"/>
  <rect x="105" y="49" width="6" height="6" fill="#FF2E63"/>
  <rect x="112" y="49" width="6" height="6" fill="#FF2E63"/>
  <rect x="0" y="77" width="6" height="6" fill="#08D9D6"/>
  <rect x="7" y="77" width="6" height="6" fill="#08D9D6"/>
  <rect x="14" y="77" width="6" height="6" fill="#08D9D6"/>
  <rect x="21" y="77" width="6" height="6" fill="#08D9D6"/>
  <rect x="28" y="77" width="6" height="6" fill="#08D9D6"/>
  <rect x="35" y="77" width="6" height="6" fill="#08D9D6"/>
  <rect x="0" y="84" width="6" height="6" fill="#08D9D6"/>
  <rect x="7" y="84" width="6" height="6" fill="#08D9D6"/>
  <rect x="14" y="84" width="6" height="6" fill="#08D9D6"/>
  <rect x="21" y="84" width="6" height="6" fill="#08D9D6"/>
  <rect x="28" y="84" width="6" height="6" fill="#08D9D6"/>
  <rect x="35" y="84" width="6" height="6" fill="#08D9D6"/>
  <rect x="14" y="91" width="6" height="6" fill="#08D9D6"/>
  <rect x="21" y="91" width="6" height="6" fill="#08D9D6"/>
  <rect x="14" y="98" width="6" height="6" fill="#08D9D6"/>
  <rect x="21" y="98" width="6" height="6" fill="#08D9D6"/>
  <rect x="14" y="105" width="6" height="6" fill="#08D9D6"/>
  <rect x="21" y="105" width="6" height="6" fill="#08D9D6"/>
  <rect x="14" y="112" width="6" height="6" fill="#08D9D6"/>
  <rect x="21" y="112" width="6" height="6" fill="#08D9D6"/>
  <rect x="0" y="119" width="6" height="6" fill="#08D9D6"/>
  <rect x="7" y="119" width="6" height="6" fill="#08D9D6"/>
  <rect x="14" y="119" width="6" height="6" fill="#08D9D6"/>
  <rect x="21" y="119" width="6" height="6" fill="#08D9D6"/>
  <rect x="28" y="119" width="6" height="6" fill="#08D9D6"/>
  <rect x="35" y="119" width="6" height="6" fill="#08D9D6"/>
  <rect x="0" y="126" width="6" height="6" fill="#08D9D6"/>
  <rect x="7" y="126" width="6" height="6" fill="#08D9D6"/>
  <rect x="14" y="126" width="6" height="6" fill="#08D9D6"/>
  <rect x="21" y="126" width="6" height="6" fill="#08D9D6"/>
  <rect x="28" y="126" width="6" height="6" fill="#08D9D6"/>
  <rect x="35" y="126" width="6" height="6" fill="#08D9D6"/>
  <rect x="49" y="77" width="6" height="6" fill="#08D9D6"/>
  <rect x="56" y="77" width="6" height="6" fill="#08D9D6"/>
  <rect x="63" y="77" width="6" height="6" fill="#08D9D6"/>
  <rect x="70" y="77" width="6" height="6" fill="#08D9D6"/>
  <rect x="77" y="77" width="6" height="6" fill="#08D9D6"/>
  <rect x="84" y="77" width="6" height="6" fill="#08D9D6"/>
  <rect x="49" y="84" width="6" height="6" fill="#08D9D6"/>
  <rect x="56" y="84" width="6" height="6" fill="#08D9D6"/>
  <rect x="63" y="84" width="6" height="6" fill="#08D9D6"/>
  <rect x="70" y="84" width="6" height="6" fill="#08D9D6"/>
  <rect x="77" y="84" width="6" height="6" fill="#08D9D6"/>
  <rect x="84" y="84" width="6" height="6" fill="#08D9D6"/>
  <rect x="91" y="84" width="6" height="6" fill="#08D9D6"/>
  <rect x="49" y="91" width="6" height="6" fill="#08D9D6"/>
  <rect x="56" y="91" width="6" height="6" fill="#08D9D6"/>
  <rect x="84" y="91" width="6" height="6" fill="#08D9D6"/>
  <rect x="91" y="91" width="6" height="6" fill="#08D9D6"/>
  <rect x="98" y="91" width="6" height="6" fill="#08D9D6"/>
  <rect x="49" y="98" width="6" height="6" fill="#08D9D6"/>
  <rect x="56" y="98" width="6" height="6" fill="#08D9D6"/>
  <rect x="77" y="98" width="6" height="6" fill="#08D9D6"/>
  <rect x="84" y="98" width="6" height="6" fill="#08D9D6"/>
  <rect x="91" y="98" width="6" height="6" fill="#08D9D6"/>
  <rect x="49" y="105" width="6" height="6" fill="#08D9D6"/>
  <rect x="56" y="105" width="6" height="6" fill="#08D9D6"/>
  <rect x="63" y="105" width="6" height="6" fill="#08D9D6"/>
  <rect x="70" y="105" width="6" height="6" fill="#08D9D6"/>
  <rect x="77" y="105" width="6" height="6" fill="#08D9D6"/>
  <rect x="84" y="105" width="6" height="6" fill="#08D9D6"/>
  <rect x="49" y="112" width="6" height="6" fill="#08D9D6"/>
  <rect x="56" y="112" width="6" height="6" fill="#08D9D6"/>
  <rect x="70" y="112" width="6" height="6" fill="#08D9D6"/>
  <rect x="77" y="112" width="6" height="6" fill="#08D9D6"/>
  <rect x="49" y="119" width="6" height="6" fill="#08D9D6"/>
  <rect x="56" y="119" width="6" height="6" fill="#08D9D6"/>
  <rect x="77" y="119" width="6" height="6" fill="#08D9D6"/>
  <rect x="84" y="119" width="6" height="6" fill="#08D9D6"/>
  <rect x="49" y="126" width="6" height="6" fill="#08D9D6"/>
  <rect x="56" y="126" width="6" height="6" fill="#08D9D6"/>
  <rect x="84" y="126" width="6" height="6" fill="#08D9D6"/>
  <rect x="91" y="126" width="6" height="6" fill="#08D9D6"/>
  <rect x="119" y="77" width="6" height="6" fill="#08D9D6"/>
  <rect x="126" y="77" width="6" height="6" fill="#08D9D6"/>
  <rect x="133" y="77" width="6" height="6" fill="#08D9D6"/>
  <rect x="140" y="77" width="6" height="6" fill="#08D9D6"/>
  <rect x="147" y="77" width="6" height="6" fill="#08D9D6"/>
  <rect x="154" y="77" width="6" height="6" fill="#08D9D6"/>
  <rect x="161" y="77" width="6" height="6" fill="#08D9D6"/>
  <rect x="112" y="84" width="6" height="6" fill="#08D9D6"/>
  <rect x="119" y="84" width="6" height="6" fill="#08D9D6"/>
  <rect x="126" y="84" width="6" height="6" fill="#08D9D6"/>
  <rect x="133" y="84" width="6" height="6" fill="#08D9D6"/>
  <rect x="140" y="84" width="6" height="6" fill="#08D9D6"/>
  <rect x="147" y="84" width="6" height="6" fill="#08D9D6"/>
  <rect x="154" y="84" width="6" height="6" fill="#08D9D6"/>
  <rect x="161" y="84" width="6" height="6" fill="#08D9D6"/>
  <rect x="112" y="91" width="6" height="6" fill="#08D9D6"/>
  <rect x="119" y="91" width="6" height="6" fill="#08D9D6"/>
  <rect x="126" y="91" width="6" height="6" fill="#08D9D6"/>
  <rect x="112" y="98" width="6" height="6" fill="#08D9D6"/>
  <rect x="119" y="98" width="6" height="6" fill="#08D9D6"/>
  <rect x="112" y="105" width="6" height="6" fill="#08D9D6"/>
  <rect x="119" y="105" width="6" height="6" fill="#08D9D6"/>
  <rect x="112" y="112" width="6" height="6" fill="#08D9D6"/>
  <rect x="119" y="112" width="6" height="6" fill="#08D9D6"/>
  <rect x="126" y="112" width="6" height="6" fill="#08D9D6"/>
  <rect x="112" y="119" width="6" height="6" fill="#08D9D6"/>
  <rect x="119" y="119" width="6" height="6" fill="#08D9D6"/>
  <rect x="126" y="119" width="6" height="6" fill="#08D9D6"/>
  <rect x="133" y="119" width="6" height="6" fill="#08D9D6"/>
  <rect x="140" y="119" width="6" height="6" fill="#08D9D6"/>
  <rect x="147" y="119" width="6" height="6" fill="#08D9D6"/>
  <rect x="154" y="119" width="6" height="6" fill="#08D9D6"/>
  <rect x="161" y="119" width="6" height="6" fill="#08D9D6"/>
  <rect x="119" y="126" width="6" height="6" fill="#08D9D6"/>
  <rect x="126" y="126" width="6" height="6" fill="#08D9D6"/>
  <rect x="133" y="126" width="6" height="6" fill="#08D9D6"/>
  <rect x="140" y="126" width="6" height="6" fill="#08D9D6"/>
  <rect x="147" y="126" width="6" height="6" fill="#08D9D6"/>
  <rect x="154" y="126" width="6" height="6" fill="#08D9D6"/>
  <rect x="161" y="126" width="6" height="6" fill="#08D9D6"/>
  <rect x="171.5" y="77" width="15" height="56" fill="#EAFF00"/>
</svg>
